<?xml version="1.0" encoding="utf-8"?>
<svg version="1.1" xmlns="http://www.w3.org/2000/svg" xmlns:xlink="http://www.w3.org/1999/xlink" viewBox="0 0 530.4 531">
<style>.st0{fill:#FF67B3;}</style>
<path class="st0" d="M142.9,485.1c0,1.6-1.3,2.8-2.8,2.8h-4.6v39.1c0,1.8-1.4,3.2-3.2,3.2s-3.2-1.4-3.2-3.2v-39.1h-4.4
	c-1.6,0-2.8-1.3-2.8-2.8s1.3-2.8,2.8-2.8h15.5C141.6,482.2,142.9,483.5,142.9,485.1z M175.1,482.2L175.1,482.2
	c-1.7,0-3.2,1.4-3.2,3.2v16.3h-5.8v-16.3c0-1.7-1.4-3.2-3.2-3.2s-3.2,1.4-3.2,3.2V527c0,1.7,1.4,3.2,3.2,3.2s3.2-1.4,3.2-3.2v-19.1
	h5.8V527c0,1.7,1.4,3.2,3.2,3.2h0c1.7,0,3.2-1.4,3.2-3.2v-41.6C178.2,483.7,176.8,482.2,175.1,482.2z M210.4,488.2c1.6,0,3-1.3,3-3
	s-1.3-3-3-3h-9.5c-1.9,0-3.4,1.5-3.4,3.4v41.2c0,1.9,1.5,3.4,3.4,3.4h9.5c1.6,0,3-1.3,3-3v-0.1c0-1.6-1.3-3-3-3H204v-15.9h5.4
	c1.6,0,3-1.3,3-3v0c0-1.6-1.3-3-3-3H204v-14H210.4z M272.9,504.6h-4.2c-1.6,0-2.9,1.3-2.9,2.9v0c0,1.6,1.3,2.9,2.9,2.9h0.9v10.9
	c0,1.3-0.1,2.9-1.4,3.8c-0.7,0.5-1.5,0.5-1.8,0.5c-1.6,0.1-2.4-1-2.6-1.5c-0.4-0.8-0.5-2.3-0.5-4.3v-27.6c0-1.6-0.1-3.7,1.3-4.8
	c0.3-0.3,0.9-0.5,1.9-0.5c2.9-0.1,2.8,2.6,2.9,3.3c0,0.5,0.1,1,0.1,1.5v2.5c0,1.6,1.3,2.9,2.9,2.9s2.9-1.3,2.9-2.9v-2.1
	c0-4.1-0.3-5.6-1.6-7.4c-2.2-3.1-5.8-3.1-7-3.1c-6,0-8.1,3.7-8.8,5.9c-0.7,1.9-0.8,3.7-0.8,7.6v24c0,3.6,0.1,7.3,3.2,9.9
	c2,1.7,4.3,1.8,5.3,1.8c3.6,0,5-1.8,5.9-3l0.2,0.7c0.3,0.9,1.1,1.6,2.1,1.6h0c1.2,0,2.2-1,2.2-2.2v-20.4
	C275.9,506,274.6,504.6,272.9,504.6z M297.6,482.2c-1.7,0-3.1,1.4-3.1,3.1V527c0,1.7,1.4,3.1,3.1,3.1c1.7,0,3.1-1.4,3.1-3.1v-41.7
	C300.7,483.6,299.3,482.2,297.6,482.2z M340.3,526.3c0.5,2-1,3.9-3,3.9c-1.4,0-2.7-1-3-2.4l-6.2-19.8H326v19c0,1.7-1.4,3.2-3.2,3.2
	s-3.2-1.4-3.2-3.2v-41.4c0-1.9,1.5-3.3,3.3-3.3h8.3c2.4,0,4.3,0.6,5.4,1.7c1.4,1.4,1.9,3.3,1.9,7.6v7.1c0,5.8-1,7.7-4.5,8.6
	L340.3,526.3z M332.2,492.4c0-1.4-0.1-2.3-0.1-2.8c-0.1-0.4-0.3-1-0.5-1.2c-0.3-0.3-0.9-0.4-2-0.4h-3.5v14.2h2.8
	c2.8,0,3.4-0.8,3.4-5.1V492.4z M371.2,524.3h-7.5v-38.9c0-1.7-1.4-3.2-3.2-3.2c-1.7,0-3.2,1.4-3.2,3.2v41.4c0,1.8,1.5,3.3,3.3,3.3
	h10.5c1.6,0,3-1.3,3-3C374.2,525.6,372.9,524.3,371.2,524.3z M402.8,504.9c-1-1.4-1.9-2.8-2.8-4.2c-2.1-3.3-3.2-5.6-3.2-9.6
	c0-2.2,0.1-4.9,3.1-4.9c2.6,0,2.4,2.7,2.5,3.3v5.6c0,1.6,1.3,2.9,2.9,2.9s2.9-1.3,2.9-2.9v-5.6c0-1.9-0.2-2.7-0.5-3.6
	c-1.5-4.7-6.3-4.6-7.6-4.6c-2.7,0-4.4,0.7-5.4,1.3c-2,1.2-4.3,3.9-4.3,9.2c0,5.6,2.6,9.6,3.7,11.3c1.8,3.1,4,5.8,5.8,9
	c1.8,3,2.3,4.9,2.3,8.3c0,2.2,0.1,5.6-3.1,5.6c-1,0-1.6-0.4-1.9-0.6c-1-0.7-1.4-1.7-1.4-4v-5.8c0-1.6-1.3-2.9-2.9-2.9
	s-2.9,1.3-2.9,2.9v5c0,2.8,0.1,5.4,2.1,7.6c1,1.2,3.1,2.9,7,2.9c2.1,0,3.4-0.4,4.2-0.7c5.4-2.4,5.3-9.6,5.3-10.7
	c0-2.8-0.4-6.4-3.7-11.6C404.2,506.9,403.6,505.9,402.8,504.9z M332.7,117H197.6l-6.1,10.6h147.3L332.7,117z M250,77.3
	c-0.8,0-4.9-0.2-8.3-3.9l-0.6-0.7l-0.5,0.1L253.5,99l0,7.4h23.4l0-7.4l12.9-26.3l-0.4-0.1l-0.7,0.8c-3.4,3.7-7.5,3.9-8.3,3.9l-0.7,0
	l1.3,5.1c-2.9,4-6.7,5.2-7.6,5.4c-0.7-0.8-3-3.9-4-5.2v-2.9l4-3.6l-0.2-0.3c-5.3-5.9-7.5-16.5-7.5-16.6h-0.4h-0.4
	c0,0.1-2.3,10.7-7.5,16.6L257,76l3.9,3.6v2.9c-1,1.3-3.3,4.4-4,5.2c-0.9-0.2-4.7-1.4-7.6-5.4l1.3-5.1L250,77.3z M395.8,204.5h-20.1
	v-26.7h16.6v-8h-16.6v-23.6h20.2v-8.1h-28.7v74.4h28.6V204.5z M277.1,144.6c4.4,5.3,5.2,12.4,5.2,24.3v15.7c0,2.1,0,4.1-0.1,6.4
	c-0.4,5.6-1.2,12-6.8,16.8c-1,0.8-3.8,3.1-7.8,4c-2.1,0.6-4.7,0.6-6,0.6h-11.1v-74.4h7.9C264.8,138.2,272,138.7,277.1,144.6z
	 M273.9,168.8c0-3.8,0-12.8-2.3-17.1c-1.7-3.2-4.9-4.4-6.2-4.8c-1.9-0.5-4.2-0.6-4.5-0.6H259v58.1h2.2c3.3,0,5.5-0.6,7.7-2.1
	c3.7-2.7,5-7.1,5-17.3V168.8z M265.2,20.3l49.7,86.1h11.7L265.2,0l-61.4,106.4h11.8L265.2,20.3z M289.8,138.2v56.6
	c0,4.5,0,9.1,3.1,13.2c0.8,1.2,1.7,2.1,2.6,2.8c3.5,2.7,8.2,3,10,3c3.4,0,11.8-0.9,14.9-9.3c0.8-2.1,1.1-4.5,1.1-7.7v-58.5H313v54.4
	c0,7.2-0.1,9.8-2.5,11.6c-0.6,0.5-2,1.3-4.7,1.3c-3.7,0-5.5-1.5-6.3-2.8c-1-1.5-1.3-3.6-1.3-7.9v-56.6H289.8z M331.9,143.5
	c-3,4-3,8.1-3,12.4v38.8c0,4.3,0.3,6.6,1.1,9.1c1.6,4.8,6.2,9.9,14.6,9.9c10.5,0,14-5.7,15.2-9.1c0.7-1.9,1-3.5,1-7.2v-12.7h-8.7
	v13.3c0,2.2-0.3,5.2-3.2,6.7c-0.8,0.4-1.8,0.8-3.6,0.8c-0.9,0-2.6-0.1-4.2-1c-1-0.6-1.7-1.3-2.3-2.3c-1.6-2.7-1.6-7.5-1.5-11.1
	l0-36.4c0-1.5-0.1-5.9,3.3-7.9c1.2-0.7,2.6-1.1,4.2-1.1c2,0,2.9,0.6,3.7,0.9c1.4,0.8,1.9,1.8,1.9,1.9c1,1.9,1.1,4.5,1.1,9.7v6.5h8.5
	v-11.7c0-2.7-0.4-5.1-1.1-7c-2.1-5.4-7.2-8.5-14.1-8.5C339.1,137.5,334.8,139.5,331.9,143.5z M236.7,140.3
	c5.8,4.4,5.8,11.3,5.8,16.9v39.1c0,3.8-0.4,7-2.4,10.2c-1.2,2.1-5,7-14,7c-2.5,0-8.7-0.5-12.4-5c-3.3-4.1-3.5-8.6-3.5-12.9v-39.9
	c0-3.3,0.4-6.4,1.2-8.6c2.1-6.1,7.7-9.8,14.9-9.8h0.3C230.6,137.4,234,138.4,236.7,140.3z M234.1,159.9c0-5.4-0.2-8.6-1.5-11.1
	c-0.3-0.6-0.9-1.7-2.4-2.5c-0.4-0.2-1.8-0.9-3.9-0.9c-1.6,0-3.1,0.4-4.4,1.2c-2.2,1.4-3.3,4.1-3.3,7.9l0,39.1c0,3.9,0.2,5.9,0.7,7.4
	c0.2,0.4,1.7,4.3,7.1,4.3c1.8,0,3.2-0.5,4.4-1.3c3-2.2,3.3-5.6,3.3-9.7V159.9z M321.1,427.5h5.2l-2.6-14.9L321.1,427.5z
	 M530.4,459.3H0l134-232.1l15.7,19.8l19.2-24.7l19.2,24.7l19.2-24.7l19.2,24.7l19.2-24.7l19.2,24.7l19.2-24.7l19.2,24.7l19.2-24.7
	l19.2,24.7l19.2-24.7l19.2,24.7l15.7-19.8L530.4,459.3z M151.8,404.7H148v25.8c0,0.9-0.1,1.7-0.3,2.3c-0.2,0.6-0.5,1-0.9,1.4
	c-0.3,0.3-0.7,0.6-1.1,0.7c-0.4,0.1-0.7,0.2-1,0.2c-0.5,0-1-0.1-1.5-0.4c-0.4-0.2-0.7-0.5-1-0.8l-3.1,2.8c0.5,0.6,1.2,1.2,2,1.8
	c0.9,0.7,2,1,3.4,1c1.2,0,2.2-0.2,3.1-0.7c0.9-0.4,1.7-1.1,2.3-1.8c0.6-0.8,1.1-1.6,1.5-2.6c0.3-1,0.5-2.1,0.5-3.2V404.7z
	 M186.5,366.7h-10.3V257.8h-23.1l-14.1,24.7h14.1v84.2H143v17.8h10.1h23.1h10.3V366.7z M212.8,439.2l-6.9-34.5h-3.3l-6.9,34.5h3.9
	l1.3-7.5h6.6l1.3,7.5H212.8z M271.3,412.8c0-2.5,0-5-2.1-6.6c-1.7-1.4-3.7-1.5-5.7-1.5h-6.7v34.5h4v-15h2.5c1.2,0,4.5,0,6.5-2.4
	c1.5-1.8,1.5-3.6,1.5-5.3V412.8z M310.4,365.9c12.4-12.4,18.5-27.3,18.5-44.8c0-17.5-6.2-32.4-18.5-44.8
	c-12.4-12.4-27.3-18.5-44.8-18.5c-17.5,0-32.4,6.2-44.8,18.5c-12.4,12.4-18.6,27.3-18.6,44.8c0,17.5,6.2,32.4,18.6,44.8
	c12.4,12.4,27.3,18.5,44.8,18.5C283.1,384.5,298.1,378.3,310.4,365.9z M332.3,439.2l-6.9-34.5h-3.2l-6.9,34.5h3.9l1.3-7.5h6.6
	l1.3,7.5H332.3z M391.3,404.7h-3.9l0,22.9l-7.4-22.9h-3.8v34.5h3.9l0-22.9l7.4,22.9h3.7V404.7z M391.3,366.7h-10.3V257.8h-23.1
	l-14.1,24.7h14.1v84.2h-10.1v17.8h10.1h23.1h10.3V366.7z M265.6,280.1c-22.7,0-41.1,18.4-41.1,41.1c0,22.7,18.4,41.1,41.1,41.1
	c22.7,0,41.1-18.4,41.1-41.1C306.8,298.4,288.3,280.1,265.6,280.1z M143,212.5h-8.6v-74.4h14.4c4.3,0,8.8,0.2,12.4,3.2
	c4.5,3.6,4.5,8.8,4.5,14.3v8c0,3.5,0,7.6-3.2,11.4c-4.3,5.2-11.4,5.2-14,5.2H143V212.5z M142.9,172.5h6.2c2.7,0,4.7-0.3,6.3-1.9
	c0.9-0.9,1.9-2.8,1.8-6.6l0-0.3v-6.1c0-6.3-0.2-8.9-2.2-10.4c-1.3-1-2.4-1.3-6.4-1.3h-5.7V172.5z M180.7,212.5h-8.6v-74.4h15.5
	c3.7,0,7.7,0.2,11.1,2.9c4.7,3.6,4.6,9.2,4.6,11.1l0,11.2c0,0.7,0,3.3-0.5,4.9c-1.5,5.8-6.1,7.8-7.8,8.5l-0.5,0.2
	c-0.2,0.1-0.3,0.1-0.4,0.2l13.1,35.3h-9.1l-0.1-0.1l-12.9-34.3h-4.6V212.5z M180.7,170.2h7.2c1.8,0,3-0.3,3.6-0.5
	c2.7-0.9,3.1-3,3.1-5.1v-11c0-2.7-0.2-5.6-2.3-6.8c-1.2-0.6-2.4-0.8-4.2-0.8h-7.4V170.2z M201.7,427.5h5.2l-2.6-14.9L201.7,427.5z
	 M266.3,408.9c-0.6-0.5-1.1-0.6-3-0.6h-2.6v12.3h2.9c1.2,0,2.2-0.2,2.9-0.9c0.4-0.4,0.9-1.3,0.8-3v-0.1v-2.8
	C267.4,410.8,267.3,409.6,266.3,408.9z"/>
</svg>
